General
Complete name                            : The Man With The Iron Fists (HD 1080p).m4v
Format                                   : MPEG-4
Format profile                           : Base Media / Version 2
Codec ID                                 : mp42
File size                                : 5.10 GiB
Duration                                 : 1h 47mn
Overall bit rate mode                    : Variable
Overall bit rate                         : 6 794 Kbps
Movie name                               : The Man with the Iron Fists
Performer                                : Russell Crowe, Jamie Chung, Lucy Liu, Zhu Zhu, Dave Bautista, Cung Le, Rick Yune, Gordon Liu Chia-Hui, Mary Christina Brown, Jin Auyeung, Byron Mann, Andrew Ng, Chen Kuan-Tai, Yoyao Hsueh, Telly Liu, RZA, Grace Huang, Andrew Lin, Pam Grier, Terence Yin, Daniel Wu
Genre                                    : Action
Recorded date                            : 2012-11-02
Encoded date                             : UTC 2013-03-01 04:52:47
Tagged date                              : UTC 2013-04-06 16:31:39
Writing application                      : HandBrake 5274svn 2013022801
Cover                                    : Yes
desc                                     : In feudal China, a blacksmith who makes weapons for a small village is put in the position where he must defend himself and his fellow villagers.

Video
ID                                       : 1
Format                                   : AVC
Format/Info                              : Advanced Video Codec
Format profile                           : High@L4.0
Format settings, CABAC                   : Yes
Format settings, ReFrames                : 4 frames
Codec ID                                 : avc1
Codec ID/Info                            : Advanced Video Coding
Duration                                 : 1h 47mn
Bit rate mode                            : Variable
Bit rate                                 : 5 813 Kbps
Width                                    : 1 920 pixels
Height                                   : 800 pixels
Display aspect ratio                     : 2.40:1
Frame rate mode                          : Variable
Frame rate                               : 23.976 fps
Minimum frame rate                       : 17.026 fps
Maximum frame rate                       : 40.504 fps
Color space                              : YUV
Chroma subsampling                       : 4:2:0
Bit depth                                : 8 bits
Scan type                                : Progressive
Bits/(Pixel*Frame)                       : 0.158
Stream size                              : 4.36 GiB (86%)
Writing library                          : x264 core 130
Encoding settings                        : cabac=1 / ref=4 / deblock=1:0:0 / analyse=0x3:0x133 / me=umh / subme=10 / psy=1 / psy_rd=1.00:0.15 / mixed_ref=1 / me_range=32 / chroma_me=1 / trellis=2 / 8x8dct=1 / cqm=0 / deadzone=21,11 / fast_pskip=1 / chroma_qp_offset=-3 / threads=12 / lookahead_threads=1 / sliced_threads=0 / nr=0 / decimate=1 / interlaced=0 / bluray_compat=0 / constrained_intra=0 / bframes=4 / b_pyramid=2 / b_adapt=2 / b_bias=0 / direct=3 / weightb=1 / open_gop=0 / weightp=2 / keyint=300 / keyint_min=30 / scenecut=40 / intra_refresh=0 / rc_lookahead=60 / rc=crf / mbtree=1 / crf=18.0 / qcomp=0.60 / qpmin=4 / qpmax=69 / qpstep=4 / vbv_maxrate=25000 / vbv_bufsize=31250 / crf_max=0.0 / nal_hrd=none / ip_ratio=1.40 / aq=1:1.00
Language                                 : English
Encoded date                             : UTC 2013-03-01 04:52:47
Tagged date                              : UTC 2013-03-01 10:07:37
Color primaries                          : BT.709
Transfer characteristics                 : BT.709
Matrix coefficients                      : BT.709

Audio #1
ID                                       : 2
Format                                   : AAC
Format/Info                              : Advanced Audio Codec
Format profile                           : LC
Codec ID                                 : 40
Duration                                 : 1h 47mn
Bit rate mode                            : Variable
Bit rate                                 : 332 Kbps
Maximum bit rate                         : 492 Kbps
Channel(s)                               : 2 channels
Channel positions                        : Front: L R
Sampling rate                            : 48.0 KHz
Compression mode                         : Lossy
Delay relative to video                  : 100ms
Stream size                              : 255 MiB (5%)
Language                                 : English
Encoded date                             : UTC 2013-03-01 04:52:47
Tagged date                              : UTC 2013-03-01 10:07:37

Audio #2
ID                                       : 3
Format                                   : AC-3
Format/Info                              : Audio Coding 3
Mode extension                           : CM (complete main)
Format settings, Endianness              : Big
Codec ID                                 : ac-3
Duration                                 : 1h 47mn
Bit rate mode                            : Constant
Bit rate                                 : 640 Kbps
Channel(s)                               : 6 channels
Channel positions                        : Front: L C R, Side: L R, LFE
Sampling rate                            : 48.0 KHz
Bit depth                                : 16 bits
Compression mode                         : Lossy
Delay relative to video                  : 100ms
Stream size                              : 492 MiB (9%)
Language                                 : English
Encoded date                             : UTC 2013-03-01 04:52:47
Tagged date                              : UTC 2013-03-01 10:07:37